{"title":"Bhadram 2014 Telugu BDRip  x264  D3Si MaNiaCs-N3kr4","uid":10318279,"size":734769879,"categoryP":"video","categoryS":"hd___movies","magnet":"?xt=urn:btih:7866a72ef32f501ab6ebc612e6add66c048299f1&amp;dn=Bhadram+2014+Telugu+BDRip++x264++D3Si+MaNiaCs-N3kr4&amp;tr=udp%3A%2F%2Ftracker.openbittorrent.com%3A80&amp;tr=udp%3A%2F%2Fopen.demonii.com%3A1337&amp;tr=udp%3A%2F%2Ftracker.coppersurfer.tk%3A6969&amp;tr=udp%3A%2F%2Fexodus.desync.com%3A6969","seeders":1,"leechers":1,"uploader":"Falcon.G13","files":2,"time":1402274424,"description":" &lt;a href=&quot;http://i.imgur.com/xTLCgmK.jpg&quot; rel=&quot;nofollow&quot; target=&quot;_NEW&quot;&gt;http://i.imgur.com/xTLCgmK.jpg&lt;/a&gt; &lt;a href=&quot;\nhttp://i.imgur.com/GY7rdZ9.jpg&quot; rel=&quot;nofollow&quot; target=&quot;_NEW&quot;&gt;\nhttp://i.imgur.com/GY7rdZ9.jpg&lt;/a&gt; &lt;a href=&quot;\nhttp://i.imgur.com/nhLntT3.jpg&quot; rel=&quot;nofollow&quot; target=&quot;_NEW&quot;&gt;\nhttp://i.imgur.com/nhLntT3.jpg&lt;/a&gt; &lt;a href=&quot;\nhttp://i.imgur.com/o12QrhC.jpg&quot; rel=&quot;nofollow&quot; target=&quot;_NEW&quot;&gt;\nhttp://i.imgur.com/o12QrhC.jpg&lt;/a&gt; &lt;a href=&quot;\nhttp://i.imgur.com/CTEvyVf.jpg&quot; rel=&quot;nofollow&quot; target=&quot;_NEW&quot;&gt;\nhttp://i.imgur.com/CTEvyVf.jpg&lt;/a&gt; &lt;a href=&quot;\nhttp://i.imgur.com/aTh9KpH.jpg&quot; rel=&quot;nofollow&quot; target=&quot;_NEW&quot;&gt;\nhttp://i.imgur.com/aTh9KpH.jpg&lt;/a&gt; &lt;a href=&quot;\nhttp://i.imgur.com/XyqxlhB.jpg&quot; rel=&quot;nofollow&quot; target=&quot;_NEW&quot;&gt;\nhttp://i.imgur.com/XyqxlhB.jpg&lt;/a&gt;\n\nGeneral\nComplete name : Bhadram 2014 Telugu BDRip x264 D3Si MaNiaCs-N3kr4.mp4\nFormat : MPEG-4\nFormat profile : Base Media\nCodec ID : isom\nFile size : 701 MiB\nDuration : 2h 1mn\nOverall bit rate mode : Variable\nOverall bit rate : 808 Kbps\nEncoded date : UTC 2014-06-08 08:27:31\nTagged date : UTC 2014-06-08 08:27:31\n\nVideo\nID : 1\nFormat : AVC\nFormat/Info : Advanced Video Codec\nFormat profile : &lt;a class=&quot;__cf_email__&quot; href=&quot;/cdn-cgi/l/email-protection&quot; data-cfemail=&quot;ce86a7a9a68e82fae0ff&quot;&gt;[email&amp;#160;protected]&lt;/a&gt;&lt;script cf-hash='f9e31' type=&quot;text/javascript&quot;&gt;\n/* &lt;![CDATA[ */!function(){try{var t=&quot;currentScript&quot;in document?document.currentScript:function(){for(var t=document.getElementsByTagName(&quot;script&quot;),e=t.length;e--;)if(t[e].getAttribute(&quot;cf-hash&quot;))return t[e]}();if(t&amp;&amp;t.previousSibling){var e,r,n,i,c=t.previousSibling,a=c.getAttribute(&quot;data-cfemail&quot;);if(a){for(e=&quot;&quot;,r=parseInt(a.substr(0,2),16),n=2;a.length-n;n+=2)i=parseInt(a.substr(n,2),16)^r,e+=String.fromCharCode(i);e=document.createTextNode(e),c.parentNode.replaceChild(e,c)}}}catch(u){}}();/* ]]&gt; */&lt;/script&gt;\nFormat settings, CABAC : Yes\nFormat settings, ReFrames : 4 frames\nCodec ID : avc1\nCodec ID/Info : Advanced Video Coding\nDuration : 2h 1mn\nBit rate : 741 Kbps\nMaximum bit rate : 5 438 Kbps\nWidth : 640 pixels\nHeight : 272 pixels\nDisplay aspect ratio : 2.35:1\nFrame rate mode : Constant\nFrame rate : 24.000 fps\nColor space : YUV\nChroma subsampling : 4:2:0\nBit depth : 8 bits\nScan type : Progressive\nBits/(Pixel*Frame) : 0.177\nStream size : 641 MiB (91%)\n\nAudio\nID : 2\nFormat : MPEG Audio\nFormat version : Version 2\nFormat profile : Layer 3\nMode : Joint stereo\nMode extension : MS Stereo\nCodec ID : 69\nDuration : 2h 1mn\nBit rate mode : Variable\nBit rate : 64.0 Kbps\nMaximum bit rate : 84.9 Kbps\nChannel(s) : 2 channels\nSampling rate : 24.0 KHz\nCompression mode : Lossy\nStream size : 56.3 MiB (8%)\nWriting library : LAME3.99r\nEncoding settings : -m j -V 4 -q 2 -lowpass 11 --abr 64\nEncoded date : UTC 2014-06-08 08:28:29\nTagged date : UTC 2014-06-08 08:29:40","torrent":{"xt":"urn:btih:7866a72ef32f501ab6ebc612e6add66c048299f1","amp;dn":"Bhadram+2014+Telugu+BDRip++x264++D3Si+MaNiaCs-N3kr4","amp;tr":["udp%3A%2F%2Ftracker.openbittorrent.com%3A80","udp%3A%2F%2Fopen.demonii.com%3A1337","udp%3A%2F%2Ftracker.coppersurfer.tk%3A6969","udp%3A%2F%2Fexodus.desync.com%3A6969"],"infoHash":"7866a72ef32f501ab6ebc612e6add66c048299f1","infoHashBuffer":{"type":"Buffer","data":[120,102,167,46,243,47,80,26,182,235,198,18,230,173,214,108,4,130,153,241]},"announce":[],"urlList":[]}}